# xmcd
#
# Track frame offsets:
#	150
#	15104
#	31097
#	51911
#	70729
#	90791
#	106038
#	120668
#	138413
#	158184
#	174040
#	188528
#	205732
#	227624
#
# Disc length: 3259 seconds
#
# Revision: 0
# Processed by: cddbd v1.5.1PL0 Copyright (c) Steve Scherf et al.
# Submitted via: dBpowerAMP V4.0
#
DISCID=950cb90e
DTITLE=GMM - Exact Acoustic
DYEAR=2000
DGENRE=Pop
TTITLE0=แทนใจ
TTITLE1=โลกแห่งความฝัน
TTITLE2=รักเธอทุดใจ
TTITLE3=ใครสักคน
TTITLE4=รักเธอมากกว่า
TTITLE5=ชีวิตมีแต่เธอ
TTITLE6=เธอผู้เดียว
TTITLE7=ขอใครสักคน
TTITLE8=พูดม่ายเป็น
TTITLE9=โปรดจงตัดสินใจ
TTITLE10=เธอม่ายเคยรู้
TTITLE11=เจ้าหญิงของฉัน
TTITLE12=เก็บใจไว้ใกล้เธอ
TTITLE13=กล่อม
EXTD=Exact Acoustic
EXTT0=
EXTT1=
EXTT2=
EXTT3=
EXTT4=
EXTT5=
EXTT6=
EXTT7=
EXTT8=
EXTT9=
EXTT10=
EXTT11=
EXTT12=
EXTT13=
PLAYORDER=
